<svg width="2071" height="872" viewBox="0 0 2071 872" fill="none" xmlns="http://www.w3.org/2000/svg">
<g clip-path="url(#clip0_3_3)">
<mask id="mask0_3_3" style="mask-type:luminance" maskUnits="userSpaceOnUse" x="0" y="0" width="2071" height="872">
<path d="M0 0H2070.99V871.998H0V0Z" fill="white"/>
</mask>
<g mask="url(#mask0_3_3)">
<path d="M0 871.998H2071.01V0H0V871.998Z" fill="black"/>
</g>
<path d="M721.112 269.991L647.255 511.264H643.937L570.341 269.991H490.464L581.281 525.838H709.818L801.25 269.991" fill="white"/>
<path d="M599.824 613.449C595.277 625.489 589.686 634.155 583.125 639.317C576.472 644.554 568.924 647.182 560.314 647.368C551.723 647.499 541.957 645.952 531.017 642.765L513.499 701.452C518.661 703.54 525.538 705.385 534.204 706.969C542.87 708.516 552.338 709.317 562.588 709.317C582.324 709.317 599.284 706.112 613.466 699.663C627.667 693.215 639.707 683.934 649.547 671.764C659.424 659.669 667.289 645.095 673.253 628.21L683.093 600.739H604.558" fill="white"/>
<path d="M385.315 344.706C379.407 356.317 370.387 365.468 358.161 372.103C345.991 378.793 330.318 382.111 311.141 382.111H239.986V227.947H310.712C330.001 227.947 345.805 231.208 358.087 237.657C370.312 244.105 379.407 253.088 385.315 264.568C391.204 276.067 394.149 289.392 394.149 304.507C394.149 319.621 391.204 333.021 385.315 344.706ZM455.594 232.01C444.17 210.745 427.341 193.972 405.089 181.802C382.855 169.576 355.329 163.501 322.584 163.501H162.811V589.501H239.986V445.588H321.596C354.397 445.588 382.11 439.512 404.548 427.342C427.024 415.228 443.984 398.53 455.538 377.321C467.037 356.131 472.796 331.847 472.796 304.507C472.796 277.465 467.093 253.33 455.594 232.01Z" fill="white"/>
<path d="M1566.89 293.698C1548.34 275.135 1524.3 265.798 1494.95 265.798C1471.76 265.798 1451.75 271.147 1434.9 281.714C1418.07 292.337 1406.09 306.538 1399.02 324.299H1395.71C1389.63 306.221 1379.12 291.983 1364.19 281.528C1349.26 271.091 1331 265.798 1309.38 265.798C1288 265.798 1269.63 271.017 1254.25 281.341C1238.84 291.666 1227.85 305.979 1221.14 324.299H1217.39V269.992H1146.18V525.838H1220.76V395.212C1220.76 382.055 1223.35 370.5 1228.63 360.622C1233.92 350.652 1240.98 342.973 1249.89 337.513C1258.75 332.033 1268.59 329.275 1279.39 329.275C1295.37 329.275 1308.28 334.195 1318.22 344.017C1328.11 353.913 1333.09 367.071 1333.09 383.602V525.838H1406.94V390.218C1406.94 372.214 1412.05 357.547 1422.25 346.235C1432.38 334.922 1446.59 329.275 1464.77 329.275C1480.02 329.275 1492.92 333.878 1503.48 343.104C1513.98 352.31 1519.27 366.884 1519.27 386.677V525.838H1594.78V375.047C1594.78 339.414 1585.5 312.316 1566.89 293.698Z" fill="white"/>
<path d="M1896.01 322.64C1888.28 308.439 1878.14 297.257 1865.54 289.02C1852.89 280.801 1838.93 274.837 1823.7 271.222C1808.46 267.643 1793.1 265.798 1777.72 265.798C1755.43 265.798 1735.03 269.116 1716.59 275.694C1698.11 282.273 1682.49 292.151 1669.78 305.252C1656.99 318.335 1647.84 334.624 1642.31 354.025L1712.61 363.996C1716.35 353.056 1723.6 343.588 1734.36 335.537C1745.11 327.486 1759.74 323.442 1778.15 323.442C1795.61 323.442 1809.01 327.728 1818.3 336.339C1827.56 344.949 1832.24 357.1 1832.24 372.774V374.004C1832.24 381.197 1829.53 386.546 1824.24 389.919C1818.89 393.293 1810.36 395.827 1798.75 397.43C1787.08 399.014 1771.89 400.803 1753.16 402.704C1737.67 404.363 1722.61 407.065 1708.11 410.755C1693.67 414.371 1680.64 419.776 1669.16 426.858C1657.61 433.921 1648.57 443.314 1641.88 455.111C1635.25 466.908 1631.93 481.836 1631.93 499.839C1631.93 509.176 1632.84 517.842 1634.76 525.838H1714.75C1707.93 519.017 1704.5 509.978 1704.5 498.628C1704.5 488.918 1707.07 480.979 1712.18 474.773C1717.34 468.641 1724.35 463.777 1733.18 460.329C1742.09 456.9 1752.12 454.384 1763.35 452.837C1768.39 452.166 1774.29 451.309 1781.06 450.321C1787.86 449.408 1794.68 448.29 1801.63 447.004C1808.59 445.774 1814.85 444.302 1820.49 442.643C1826.09 440.984 1830.09 439.195 1832.42 437.238V474.903C1832.42 486.7 1829.4 497.566 1823.38 507.536C1819.08 514.656 1813.49 520.787 1806.61 525.838H1907.51V375.662C1907.51 354.472 1903.69 336.767 1896.01 322.64Z" fill="white"/>
<path d="M903.622 514.767C892.16 506.53 883.513 495.012 877.717 480.177C871.846 465.343 868.92 448.029 868.92 428.199C868.92 408.649 871.846 391.131 877.586 375.755C883.382 360.361 891.918 348.21 903.324 339.358C914.729 330.505 928.93 326.088 945.946 326.088C962.383 326.088 976.286 330.319 987.618 338.855C998.893 347.334 1007.5 359.299 1013.36 374.619C1019.15 389.957 1022.08 407.773 1022.08 428.199C1022.08 448.83 1019.15 466.591 1013.22 481.37C1007.32 496.131 998.651 507.406 987.301 515.308C975.914 523.173 962.141 527.086 945.946 527.086C929.173 527.086 915.102 522.986 903.622 514.767ZM1022.08 267.643V321.224H1017.85C1014.1 313.378 1008.49 304.973 1001.2 296.046C993.917 287.081 984.077 279.422 971.795 273.067C959.458 266.637 943.821 263.413 924.886 263.413C899.95 263.413 877.4 269.824 857.142 282.534C836.902 295.244 820.819 313.881 808.928 338.426C797.02 362.971 791.093 393.013 791.093 428.591C791.093 463.908 797.02 493.261 808.928 516.687C810.792 520.303 812.73 523.788 814.78 527.086C825.869 545.406 839.959 559.496 857.03 569.392C877.213 581.17 899.764 587.041 924.625 587.041C943.188 587.041 958.656 584.227 970.919 578.617C983.257 572.952 993.171 565.981 1000.7 557.688C1008.17 549.395 1013.91 541.306 1017.85 533.46H1021.65V594.813C1021.65 597.683 1021.52 600.441 1021.33 603.05C1019.84 622.749 1012.85 637.193 1000.4 646.418C986.183 656.873 968.235 662.11 946.561 662.11C931.241 662.11 918.513 660.06 908.486 655.885C898.459 651.767 890.483 646.53 884.556 640.305C878.649 634.006 874.157 627.725 871.045 621.426L802.312 638.069C806.934 653.146 815.209 666.844 827.174 679.181C839.139 691.593 854.961 701.49 874.66 708.851C894.341 716.269 917.898 719.94 945.312 719.94C974.404 719.94 1000.46 715.449 1023.38 706.41C1046.25 697.445 1064.33 683.859 1077.6 665.726C1089.8 648.971 1096.42 628.098 1097.28 603.05C1097.35 601.056 1097.41 598.987 1097.41 596.937V267.643" fill="white"/>
</g>
<defs>
<clipPath id="clip0_3_3">
<rect width="2071" height="872" fill="white"/>
</clipPath>
</defs>
</svg>
